<?xml version="1.0" ?><svg viewBox="0 0 64 64" xmlns="http://www.w3.org/2000/svg"><g data-name="Layer 11" id="Layer_11"><path d="M60,59H55.35V36.67a6.57,6.57,0,0,0,5.47-6.46c0-.1,0-.2,0-.3L55.34,12.26V4a1,1,0,0,0-1-1H9.66a1,1,0,0,0-1,1v8.26L3.22,29.91c0,.1,0,.2,0,.3a6.57,6.57,0,0,0,5.47,6.46V59H4a1,1,0,0,0,0,2H60a1,1,0,0,0,0-2Zm-6.65,0H39.71V54.23H53.35ZM10.65,41H24.29V52.23H10.65Zm0-2V36.71a6.55,6.55,0,0,0,4.65-3,6.57,6.57,0,0,0,11.13,0,6.58,6.58,0,0,0,11.14,0,6.57,6.57,0,0,0,11.13,0,6.55,6.55,0,0,0,4.65,3V39ZM44.58,13.41,45.42,18l2.07,11.23h-9l-1-15.8Zm3,17.8a4.56,4.56,0,0,1-8.9,0Zm-12-17.8,1,15.8h-9l1-15.8Zm.92,17.8a4.56,4.56,0,0,1-8.9,0Zm-11-2h-9L18.58,18l.84-4.57h7Zm-.18,2a4.56,4.56,0,0,1-8.9,0ZM39.71,41H53.34V52.23H39.71Zm14.65-6.24h-.11a4.55,4.55,0,0,1-4.43-3.56H58.7A4.55,4.55,0,0,1,54.36,34.76Zm-4.83-5.55-2.92-15.8h7l4.86,15.8ZM10.66,5H53.34v6.41H10.66Zm-.27,8.41h7l-2.92,15.8H5.53ZM5.3,31.21h8.88a4.55,4.55,0,0,1-4.43,3.56H9.64A4.55,4.55,0,0,1,5.3,31.21Zm5.35,23H24.29V59H10.65ZM26.29,59V41H37.71V59Z"/></g></svg>